<svg width="287.64606" height="150" xmlns="http://www.w3.org/2000/svg">

 <metadata id="metadata7">image/svg+xml</metadata>
 <g>
  <title>background</title>
  <rect fill="none" id="canvas_background" height="152" width="289.64606" y="-1" x="-1"/>
 </g>
 <g>
  <title>Layer 1</title>
  <g transform="rotate(-32.83451843261719 239.06599426269537,108.14074707031247) " id="layer1">
   <path fill="#000000" fill-rule="evenodd" stroke-width="0.265" stroke-miterlimit="4" id="path4245-9" d="m98.06529,56.41937l8.88008,10.12341l86.02834,-3.58479c0,0 -2.08798,2.37169 -2.81637,4.55683l-74.89103,7.22074l7.21196,7.46776l66.31327,-10.96677c0,0 -0.72502,1.85443 -0.72502,3.88349l-56.88284,14.46577l7.16856,6.48644l49.50033,-18.572c0,0 0.0067,3.00013 0.6165,4.27623l-42.05169,21.08035l6.44405,4.69429l36.39984,-22.83012c0,0 1.06979,2.69192 1.96268,3.58481l-28.20655,26.54255l5.67562,3.96824l24.74991,-28.24945c0.38267,0.89289 3.28611,2.60347 3.28611,2.60347l-17.11214,28.93208c3.14635,2.12593 7.1267,0.89607 7.1267,0.89607l12.54549,-28.93208c2.42354,1.02044 4.0969,0.81078 4.0969,0.81078l-8.66252,25.85943c4.08175,-0.6803 6.05906,-3.20032 6.05906,-3.20032l5.24878,-22.61672c1.91332,0.21259 3.84059,-0.17052 3.84059,-0.17052c-0.12756,2.76368 -2.9869,18.43452 -2.9869,18.43452c0,0 6.40647,-8.02391 7.89461,-8.44909c0,0 -2.30486,-8.37118 -2.43241,-10.32701c0,0 2.09569,-0.13142 3.41375,-1.15189c0,0 1.7924,5.55384 1.8774,7.33962c1.91332,-1.70074 3.11506,-4.26744 3.11506,-4.26744c0,0 -1.1546,-0.99568 -1.87741,-4.86481c0,-0.00003 4.3157,-1.61023 5.05138,0.0915c0.73565,1.70166 0.04766,7.04865 -4.11913,11.6406c0,0 -4.39412,6.87547 -8.05068,9.04391c1.78576,-0.12755 8.4214,2.37675 9.73946,5.6932l10.50737,-26.26921l-7.66826,-8.81651c-12.71295,7.73831 -28.20184,6.05992 -30.22917,-0.11369c-2.02733,-6.17361 -0.42219,-16.12024 5.16816,-20.50469c1.81281,-1.42176 5.62576,-3.00274 5.93607,-5.80895l-107.14591,0l0,-0.00003zm174.85548,0c0.31031,2.80621 4.12326,4.38719 5.93607,5.80895c5.59035,4.38445 7.19549,14.33108 5.16816,20.50469c-2.02733,6.17361 -17.51622,7.852 -30.22916,0.11369l-7.66827,8.81651l10.50737,26.26921c1.31806,-3.31645 7.95369,-5.82075 9.73945,-5.6932c-3.65656,-2.16844 -8.05118,-9.04391 -8.05118,-9.04391c-4.16679,-4.59195 -4.85428,-9.93894 -4.11861,-11.6406c0.73566,-1.7017 5.05137,-0.0915 5.05137,-0.0915c-0.72281,3.86913 -1.87792,4.86481 -1.87792,4.86481c0,0 1.20225,2.5667 3.11557,4.26744c0.085,-1.78578 1.8774,-7.33962 1.8774,-7.33962c1.31806,1.02047 3.41375,1.15189 3.41375,1.15189c-0.12755,1.95583 -2.43241,10.32701 -2.43241,10.32701c1.48814,0.42518 7.89461,8.44909 7.89461,8.44909c0,0 -2.85934,-15.67084 -2.9869,-18.43452c0,0 1.92675,0.38311 3.84007,0.17052l5.24878,22.61672c0,0 1.97783,2.52002 6.05958,3.20032l-8.66252,-25.85943c0,0 1.67337,0.20966 4.0969,-0.81078l12.54549,28.93208c0,0 3.98035,1.22986 7.1267,-0.89607l-17.11214,-28.93208c0,0 2.90344,-1.71058 3.28611,-2.60347l24.74991,28.24945l5.67562,-3.96824l-28.20655,-26.54255c0.8929,-0.89289 1.96268,-3.58481 1.96268,-3.58481l36.39984,22.83012l6.44354,-4.69429l-42.05118,-21.08035c0.60979,-1.2761 0.6165,-4.27623 0.6165,-4.27623l49.49982,18.572l7.16907,-6.48644l-56.88283,-14.46577c0,-2.02906 -0.72503,-3.88349 -0.72503,-3.88349l66.31327,10.96677l7.21145,-7.46776l-74.89052,-7.22074c-0.72838,-2.18514 -2.81637,-4.55683 -2.81637,-4.55683l86.02834,3.58479l8.88008,-10.12341l-107.14591,0l0,0.00003zm-19.75849,7.5246l-0.87075,1.35186l-9.109,0.21704l11.35228,3.9517l0.79065,5.89163c5.4606,-3.0177 2.80206,-4.88585 9.69966,-7.32875l0.40205,-2.36523l-3.60805,-0.23255l-0.81907,-0.62632l-7.83777,-0.85938zm-40.98923,1.13792l0.9338,2.94556c6.89761,2.4429 4.23906,4.31105 9.69966,7.32875l0.79065,-5.89163l11.35228,-3.9517l-22.77639,-0.43098zm7.83157,1.00562a2.08365,2.08365 0 0 1 2.08359,2.0836a2.08365,2.08365 0 0 1 -2.08359,2.08411a2.08365,2.08365 0 0 1 -2.0836,-2.08411a2.08365,2.08365 0 0 1 2.0836,-2.0836zm-6.97942,3.53932c-1.6817,0.0345 -4.30289,0.69358 -6.0973,1.34669c0.19521,2.09548 1.38199,3.46651 1.93993,5.24516c0.19995,0.63741 0.37935,2.39744 0.58084,3.20807c0.20149,0.81063 0.99942,0.52814 0.99942,0.52814c0,0 -0.28723,-2.15585 1.29346,-4.3832c0,0 5.74828,-0.64616 6.53862,-1.79576c-1.93995,-1.22145 -2.44624,-3.15966 -3.95221,-3.95221c-0.2863,-0.15067 -0.7422,-0.20838 -1.30276,-0.19689zm52.08157,0c-0.56056,-0.0115 -1.01697,0.0462 -1.30328,0.19689c-1.50597,0.79255 -2.01174,2.73076 -3.95169,3.95221c0.79035,1.1496 6.53862,1.79576 6.53862,1.79576c1.5807,2.22735 1.29294,4.3832 1.29294,4.3832c0,0 0.79845,0.28249 0.99994,-0.52814c0.20149,-0.81063 0.38089,-2.57066 0.58084,-3.20807c0.55794,-1.77865 1.74473,-3.14968 1.93994,-5.24516c-1.79442,-0.65311 -4.41561,-1.31221 -6.09731,-1.34669zm-35.25108,0.12971l-3.72845,1.02268l-1.62367,6.37429l8.77982,9.32088l4.44986,-11.06496l-7.87756,-5.65289zm18.42059,0l-7.87756,5.65289l4.44986,11.06496l8.77982,-9.32088l-1.62367,-6.37429l-3.72845,-1.02268zm-9.2103,6.1991l-16.05121,47.99759l7.12825,4.63383l-7.02076,12.33154l3.11402,2.89907l6.33501,-13.95887l1.29708,0.92501l-6.02134,14.64459l3.97289,3.54345l4.29483,-16.8584c0.98381,-0.46297 1.28055,0.008 1.39629,0.64442l-3.22151,18.57613l4.77645,4.93922l4.77646,-4.93922l-3.22151,-18.57613c0.11574,-0.63627 0.41248,-1.10739 1.3963,-0.64442l4.29482,16.8584l3.97289,-3.54345l-6.02134,-14.64459l1.29708,-0.92501l6.33501,13.95887l3.11403,-2.89907l-7.02077,-12.33154l7.12773,-4.63383l-16.0507,-47.99759zm15.20786,50.53129l-4.55269,2.62567l7.82071,10.20093c0,0 -0.909,1.07802 -0.86403,1.7172c0.0357,0.50797 0.87126,1.25524 0.87126,1.25524l-4.08812,4.71701c0,0 -2.41939,-0.12083 -3.39307,0.43254c1.01011,0.702 1.42208,0.67871 1.76061,1.30742c0.0484,1.11231 -0.14521,2.31664 -0.14521,2.31664c1.08986,-0.40312 2.13612,-0.81 3.31763,-1.11258c1.88611,0.3869 8.82944,3.99098 8.82944,3.99098c0,0 -5.32048,-6.37823 -5.6963,-7.18355c0.16107,-0.64426 2.04846,-2.70734 2.04846,-2.70734c0.48319,-0.59055 0.87216,-0.64265 1.24798,0.0553c0,0 0.91694,1.21042 1.38441,2.78175c0.0717,0.24093 -1.00169,1.74895 -0.86713,1.98025c0.30491,0.52406 1.68274,-0.12136 2.0743,0.37465c1.89767,2.40382 2.88792,5.81234 2.97036,6.19704c-0.64426,1.2885 -3.17811,4.2199 -3.17811,4.2199c0,0 3.44657,-1.26662 5.18108,-1.75546c0.76104,-0.21447 1.45986,1.96165 1.45986,1.96165c0.32213,-0.42953 0.3219,-5.95125 0.2682,-7.1324c-0.46825,-0.9625 -1.99756,-3.19122 -3.59926,-5.38314c-0.27253,-0.37293 0.61397,-1.80858 0.34572,-2.16937c-0.40199,-0.54062 -1.46534,0.0933 -1.95079,-0.24545c-1.21611,-0.84876 -1.86552,-2.18797 -1.86552,-2.18797c-0.26845,-0.64426 0.0631,-1.03209 0.65371,-1.13948c0,0 1.81971,-0.38479 3.02875,-0.33642c3.2213,4.99303 3.85507,9.69089 3.85507,9.69089c0,0 0.6687,-8.21526 0.0884,-11.31043c0,0 2.46218,-1.75668 2.31304,-2.20917c-0.11909,-0.36131 -2.5709,0.0579 -2.5709,0.0579l-0.45114,-1.68518c-0.13821,-0.581 -0.61514,-0.62955 -0.85007,0.0465l-0.5948,1.95543l-6.13244,1.19891c-0.38449,0.12816 -0.0414,-1.09736 -0.64492,-1.63555c-0.4078,-0.36364 -1.90089,0.0294 -1.98748,-0.18709l-6.08697,-10.70321l-0.00004,-0.00001zm-30.56092,0.0966l-7.10241,12.34705c-0.21475,0.53684 -0.68228,0.53824 -1.32653,0.32351l-8.8589,-1.71773l0.32246,12.93876c0,0 0.53662,-4.45606 3.75792,-9.44904l3.31917,0.57825c0.59059,0.10736 0.92216,0.49522 0.65371,1.13948c0,0 -6.92563,7.99949 -7.89202,9.98593c-0.05369,1.18115 0.42976,4.1878 0.75189,4.61729c0,0 1.27915,0 2.04018,0.21498c1.73452,0.48884 4.93924,2.09394 4.93924,2.09394c0,0 -3.11417,-3.2213 -3.75843,-4.5098c0.16107,-0.75163 5.85235,-11.38227 5.85235,-11.38227c0.37583,-0.69794 1.05471,-0.30736 1.53789,0.28319c0,0 1.79075,1.91836 1.95182,2.56264c-0.37581,0.80532 -5.74486,7.08639 -5.74486,7.08639l11.48922,-5.58313l-5.69113,-6.54997c-0.69795,-0.75166 -0.68049,-0.80452 -0.08992,-1.71723l8.3044,-10.68512l-4.45606,-2.57712l0.00001,0z"/>
  </g>
 </g>
</svg>